<svg xmlns="http://www.w3.org/2000/svg" width="64" height="64" viewBox="0 0 64 64" fill="none">
  <rect x="5.12012" y="12.8125" width="20.48" height="25.625" fill="white"/>
  <path d="M26.4369 46.5965C31.5249 39.0176 34.3515 33.6842 33.5035 23.8597V23.5789C31.8075 10.6667 16.8263 0 16.8263 0C16.8263 0 1.56234 10.9474 0.149015 23.8597C-0.698981 33.6842 2.12768 39.0176 7.21566 46.5965C8.62898 48.8421 12.3036 53.0526 14.8476 56.7017C17.3916 60.3509 16.8263 64 16.8263 64C16.8263 64 17.1089 63.4386 17.3916 62.3158C17.9569 60.6316 19.0875 58.1053 20.2182 56.1404C22.4795 52.2106 25.0236 48.8421 26.4369 46.5965ZM13.9996 37.0526C10.325 37.0526 7.21566 34.2456 7.21566 29.4737C7.21566 24.7018 10.325 21.614 13.9996 21.614C16.5436 21.614 18.5222 23.2983 19.0876 25.5439V20.7719C19.0876 19.0877 18.8049 17.9649 17.6742 17.4035C17.6742 17.4035 17.6742 17.4035 17.6742 17.1228C17.6742 17.1228 17.6743 16.8421 17.9569 16.8421L23.3275 15.1579C23.6102 15.1579 23.8929 15.1579 23.8929 15.4386V21.614V33.6842C23.8929 35.6491 24.1756 36.2105 25.5889 37.0526H19.3702V33.1228C18.5222 35.0877 16.8263 37.0526 13.9996 37.0526Z" fill="#27483E"/>
  <rect x="38.4004" y="25.625" width="17.92" height="23.0625" fill="white"/>
  <path d="M47.9191 36.2104C49.3324 33.9647 48.7671 31.9998 47.3537 31.4384C45.0924 30.877 43.6791 32.5612 43.1137 34.8069C42.8311 35.649 42.8311 36.491 42.8311 37.3332C42.8311 38.1753 42.8311 38.7367 43.1137 39.2981C43.1137 39.2981 46.2231 39.2981 47.9191 36.2104Z" fill="#27483E"/>
  <path d="M19.3698 27.5087C19.3698 24.421 17.6739 22.7368 15.6952 22.7368C13.4339 22.7368 12.0205 24.9824 12.0205 29.1929C12.0205 32.8421 13.4339 35.0877 15.6952 35.0877C17.3912 35.0877 19.3698 33.4035 19.3698 30.5964V27.5087Z" fill="#27483E"/>
  <path d="M63.7487 21.6139C63.7487 21.6139 47.0714 16.842 36.0474 22.456C36.0474 22.7367 36.0475 23.2981 36.3301 23.5788C37.1781 33.6841 34.3514 39.5788 28.9808 47.4385C27.2848 49.6841 25.0235 53.3332 23.0448 56.7016C21.6315 59.2279 20.5009 62.3157 19.9355 63.7192C20.7835 62.5964 22.1968 60.9122 24.7408 59.7894C28.4155 58.3859 30.3941 58.1052 33.2208 57.8245C42.2661 57.2631 49.898 56.4209 56.9647 49.9648C66.01 40.9823 63.7487 21.6139 63.7487 21.6139ZM45.9407 46.035C43.1141 46.035 40.8528 44.9121 39.7221 42.6665C39.7221 42.3858 39.4395 42.1052 39.4395 42.1052C39.4395 41.8245 39.1568 41.5437 39.1568 41.5437V41.263C39.1568 41.263 39.1568 41.2631 39.1568 40.9824C38.8741 40.1403 38.8741 39.2981 38.8741 38.456C38.8741 34.2455 42.5488 31.1578 45.0928 30.5964C51.3114 29.1929 52.7247 33.9648 52.7247 34.8069C52.442 39.2981 43.9621 40.1402 43.3968 40.1402C44.2448 42.6665 45.9408 43.7894 48.2021 43.7894C50.1808 43.7894 51.8767 42.6666 53.0074 40.7017H53.2901C52.1594 44.0701 49.6154 46.035 45.9407 46.035Z" fill="#27483E"/>
</svg>